<?xml version="1.0" encoding="UTF-8" standalone="no"?>
<!DOCTYPE svg PUBLIC "-//W3C//DTD SVG 1.1//EN" "http://www.w3.org/Graphics/SVG/1.1/DTD/svg11.dtd">
<svg width="100%" height="100%" viewBox="0 0 1500 1500" version="1.1" xmlns="http://www.w3.org/2000/svg" xmlns:xlink="http://www.w3.org/1999/xlink" xml:space="preserve" xmlns:serif="http://www.serif.com/" style="fill-rule:evenodd;clip-rule:evenodd;stroke-miterlimit:2;">
    <g transform="matrix(0.897887,-5.55112e-17,5.55112e-17,0.897887,75,75)">
        <circle cx="751.765" cy="751.765" r="751.765" style="fill:rgb(20,184,166);stroke:rgb(4,47,46);stroke-width:11.14px;"/>
    </g>
    <g transform="matrix(1.56109,0,0,1.56109,-146.675,-1027.73)">
        <path d="M774.905,977.484C774.905,956.167 757.599,938.861 736.282,938.861L413.594,938.861C392.278,938.861 374.971,956.167 374.971,977.484L374.971,1300.17C374.971,1321.49 392.278,1338.8 413.594,1338.8L736.282,1338.8C757.599,1338.8 774.905,1321.49 774.905,1300.17L774.905,977.484Z" style="fill:rgb(19,78,74);stroke:white;stroke-width:12.81px;stroke-linejoin:bevel;stroke-miterlimit:1.5;"/>
    </g>
    <g transform="matrix(2.07147,0,0,2.07147,58.09,82.2528)">
        <path d="M345.82,435.475C330.021,407.065 317.741,385.94 308.982,372.099L294.075,348.755L282.825,331.599C258.263,293.349 232.669,261.755 206.044,236.818C221.232,224.255 235.388,217.974 248.513,217.974C264.638,217.974 278.982,223.88 291.544,235.693C304.107,247.505 319.95,270.005 339.075,303.193C360.825,232.505 388.482,165.474 422.044,102.099C440.607,67.599 457.153,44.396 471.685,32.49C486.216,20.583 505.482,14.63 529.482,14.63C542.232,14.63 557.982,16.599 576.732,20.537C528.544,59.349 490.013,105.474 461.138,158.912C441.476,195.299 417.902,250.595 390.416,324.799L397.181,325.654C442.224,331.781 482.87,332.806 519.121,328.726C518.826,348.434 514.421,363.281 505.905,373.268C495.442,385.538 481.641,392.621 464.502,394.516C448.549,396.279 423.708,394.198 389.977,388.274L394.517,395.802L405.324,413.241C428.898,452.108 453.674,484.347 479.651,509.958C464.147,522.127 449.834,528.044 436.714,527.708C420.594,527.294 406.406,521.023 394.15,508.892C381.895,496.762 366.633,473.863 348.364,440.196C347.508,438.618 346.658,437.046 345.82,435.475Z" style="fill:rgb(204,251,241);stroke:black;stroke-width:4.83px;stroke-linejoin:round;"/>
    </g>
</svg>
